<?xml version="1.0" encoding="UTF-8"?>
<svg id="Layer_2" xmlns="http://www.w3.org/2000/svg" version="1.1" viewBox="0 0 500 500">
  <!-- Generator: Adobe Illustrator 29.6.1, SVG Export Plug-In . SVG Version: 2.1.1 Build 9)  -->
  <defs>
    <style>
      .st0 {
        stroke-width: 9px;
      }

      .st0, .st1 {
        fill: none;
      }

      .st0, .st1, .st2 {
        stroke: #000;
        stroke-miterlimit: 10;
      }

      .st1 {
        stroke-width: 20px;
      }

      .st2 {
        stroke-width: 5px;
      }
    </style>
  </defs>
  <g>
    <path class="st0" d="M109.1,19c-12.7,0-23.1,10.4-23.1,23.1v415.8c0,12.7,10.4,23.1,23.1,23.1h281.8c12.7,0,23.1-10.4,23.1-23.1V155.3c0-1.5-.6-3-1.7-4L280,20.1c-.7-.7-1.7-1.1-2.7-1.1H109.1Z"/>
    <path d="M278.9,19v128.9c0,2.8,2.2,5,5,5h130.1L278.9,19ZM315.2,113.2l-12.7,7.1,12.7,7.2v10.1l-23.5-13.1v-8.5l23.5-13v10.2h0ZM340.6,137.5v-10.2l12.6-7.1-12.6-7.2v-10.1l23.5,13v8.6l-23.5,13h0Z"/>
  </g>
  <path d="M254.5,407.7c-14.5,13.3-33.1,19.9-55.6,19.9s-49.9-9-65.9-26.9c-16-18-24-42.7-24-74.1s9.1-60.1,27.3-78.4c15.8-16,35.9-24,60.4-24s56.6,10.7,71.7,32.2c8.4,12,12.8,24.1,13.5,36.2h-40.6c-2.6-9.3-6-16.4-10.1-21.1-7.4-8.4-18.3-12.7-32.8-12.7s-26.4,6-34.9,17.9c-8.5,11.9-12.8,28.8-12.8,50.6s4.5,38.1,13.5,49,20.5,16.3,34.3,16.3,25.1-4.7,32.6-14c4.1-5,7.6-12.5,10.3-22.5h40.2c-3.5,21.2-12.5,38.4-26.9,51.7h-.2Z"/>
  <g>
    <line class="st1" x1="336.9" y1="279.1" x2="336.9" y2="422.2"/>
    <path class="st2" d="M299.4,283.1l33.3-55.8c2.3-3.9,8-3.8,10.2.1l31.7,56.7c2.2,4-.7,8.8-5.2,8.7l-65-.9c-4.5,0-7.3-5-5-8.9h0Z"/>
  </g>
</svg>