<svg xmlns="http://www.w3.org/2000/svg" xmlns:xlink="http://www.w3.org/1999/xlink" width="500" zoomAndPan="magnify" viewBox="0 0 375 374.999991" height="500" preserveAspectRatio="xMidYMid meet" version="1.2"><defs><clipPath id="037d2499ee"><path d="M 57 14.421875 L 317 14.421875 L 317 360.921875 L 57 360.921875 Z M 57 14.421875 "/></clipPath><clipPath id="24bb885449"><rect x="0" width="66" y="0" height="69"/></clipPath></defs><g id="535d2cab06"><rect x="0" width="375" y="0" height="374.999991" style="fill:#ffffff;fill-opacity:1;stroke:none;"/><rect x="0" width="375" y="0" height="374.999991" style="fill:#ffffff;fill-opacity:1;stroke:none;"/><g clip-rule="nonzero" clip-path="url(#037d2499ee)"><path style=" stroke:none;fill-rule:nonzero;fill:#000000;fill-opacity:1;" d="M 57.6875 353.703125 L 57.6875 21.640625 C 57.6875 17.652344 60.914062 14.421875 64.890625 14.421875 L 242.113281 14.421875 C 243.988281 14.421875 245.789062 15.171875 247.140625 16.527344 L 314.890625 84.425781 C 316.242188 85.78125 316.992188 87.585938 316.992188 89.464844 L 316.992188 353.703125 C 316.992188 357.6875 313.765625 360.921875 309.789062 360.921875 L 64.890625 360.921875 C 60.914062 360.921875 57.6875 357.6875 57.6875 353.703125 Z M 302.585938 346.484375 L 302.585938 101.046875 L 237.761719 101.046875 C 233.785156 101.046875 230.558594 97.8125 230.558594 93.828125 L 230.558594 28.859375 L 72.09375 28.859375 L 72.09375 346.484375 Z M 302.585938 346.484375 "/></g><g style="fill:#000000;fill-opacity:1;"><g transform="translate(68.502041, 318.064052)"><path style="stroke:none" d="M 75.84375 1.90625 C 61.613281 1.90625 49.394531 -1.578125 39.1875 -8.546875 C 28.976562 -15.523438 21.234375 -24.859375 15.953125 -36.546875 C 10.671875 -48.234375 8.03125 -60.910156 8.03125 -74.578125 C 8.03125 -88.234375 10.671875 -100.867188 15.953125 -112.484375 C 21.234375 -124.109375 28.976562 -133.40625 39.1875 -140.375 C 49.394531 -147.34375 61.613281 -150.828125 75.84375 -150.828125 C 93.164062 -150.828125 107.316406 -145.753906 118.296875 -135.609375 C 129.285156 -125.472656 136.398438 -112.378906 139.640625 -96.328125 L 107.734375 -96.328125 C 106.046875 -103.648438 102.421875 -109.773438 96.859375 -114.703125 C 91.296875 -119.640625 84.429688 -122.109375 76.265625 -122.109375 C 64.992188 -122.109375 56.503906 -117.707031 50.796875 -108.90625 C 45.097656 -100.101562 42.25 -88.660156 42.25 -74.578125 C 42.25 -60.210938 45.097656 -48.660156 50.796875 -39.921875 C 56.503906 -31.191406 64.992188 -26.828125 76.265625 -26.828125 C 84.285156 -26.828125 91.003906 -29.21875 96.421875 -34 C 101.847656 -38.789062 105.476562 -44.5 107.3125 -51.125 L 138.796875 -51.125 C 135.691406 -35.632812 128.679688 -22.921875 117.765625 -12.984375 C 106.859375 -3.054688 92.882812 1.90625 75.84375 1.90625 Z M 75.84375 1.90625 "/></g></g><path style="fill:none;stroke-width:20;stroke-linecap:butt;stroke-linejoin:miter;stroke:#000000;stroke-opacity:1;stroke-miterlimit:4;" d="M 0.00148293 10.001852 L 143.058784 10.001852 " transform="matrix(0,-0.75,0.75,0,245.893143,316.797987)"/><path style="fill-rule:nonzero;fill:#000000;fill-opacity:1;stroke-width:20;stroke-linecap:round;stroke-linejoin:round;stroke:#000000;stroke-opacity:1;stroke-miterlimit:4;" d="M 148.058784 -19.99815 L 188.058787 10.001852 L 148.058784 40.001854 Z M 148.058784 -19.99815 " transform="matrix(0,-0.75,0.75,0,245.893143,316.797987)"/><g transform="matrix(1,0,0,1,228,36)"><g clip-path="url(#24bb885449)"><g style="fill:#ffffff;fill-opacity:1;"><g transform="translate(1.140341, 55.475847)"><path style="stroke:none" d="M 22.140625 -19.921875 L 11.59375 -15.046875 L 11.59375 -14.8125 L 22.140625 -9.84375 L 22.140625 -3.640625 L 21.578125 -3.640625 L 4.609375 -12.46875 L 4.609375 -17.296875 L 21.578125 -26.140625 L 22.140625 -26.140625 Z M 22.140625 -19.921875 "/></g></g><g style="fill:#ffffff;fill-opacity:1;"><g transform="translate(27.872874, 55.475847)"><path style="stroke:none" d=""/></g></g><g style="fill:#ffffff;fill-opacity:1;"><g transform="translate(38.455452, 55.475847)"><path style="stroke:none" d="M 5.15625 -26.140625 L 22.140625 -17.296875 L 22.140625 -12.46875 L 5.15625 -3.640625 L 4.609375 -3.640625 L 4.609375 -9.84375 L 15.1875 -14.8125 L 15.1875 -15.046875 L 4.609375 -19.921875 L 4.609375 -26.140625 Z M 5.15625 -26.140625 "/></g></g></g></g></g></svg>